<svg xmlns="http://www.w3.org/2000/svg" viewBox="0 0 1024 1024" width="32" height="32" fill="white"><path d="M938.667 343.595v336.811a214.741 214.741 0 0 1-62.592 152.277A215.125 215.125 0 0 1 724.011 896H301.141a215.509 215.509 0 0 1-152.576-62.891 215.083 215.083 0 0 1-63.232-152.32V343.595c0-25.088 4.523-50.005 13.269-73.515A215.424 215.424 0 0 1 301.141 128h421.717a215.381 215.381 0 0 1 203.648 144.725c8.363 22.699 12.459 46.72 12.16 70.827z" opacity=".4"/><path d="M926.507 273.109l-4.181 3.413-332.587 265.216a120.32 120.32 0 0 1-151.723 0L106.923 276.907l-8.32-6.443A215.424 215.424 0 0 1 301.141 128h421.717a215.381 215.381 0 0 1 203.648 145.109z"/></svg>