<svg xmlns="http://www.w3.org/2000/svg" viewBox="0 0 1024 1024" width="32" height="32" fill="white"><path d="M364.032 125.312a293.973 293.973 0 0 1 300.117 2.475c91.477 56.832 147.029 158.293 146.517 267.307-2.133 108.373-61.739 210.304-136.235 289.067a798.976 798.976 0 0 1-143.275 120.32 50.091 50.091 0 0 1-17.451 6.187 34.987 34.987 0 0 1-16.64-5.077 789.973 789.973 0 0 1-206.464-194.005 395.947 395.947 0 0 1-77.269-221.867l.213-11.648c3.84-104.789 60.587-200.533 150.485-252.757zM550.699 300.16a100.096 100.096 0 0 0-110.677 22.187 104.747 104.747 0 0 0-22.144 112.64 101.461 101.461 0 0 0 93.781 63.872 99.797 99.797 0 0 0 71.808-29.952c19.029-19.328 29.696-45.653 29.611-73.045a103.381 103.381 0 0 0-62.379-95.701z"/><path d="M298.667 896a213.333 42.667 0 1 0 426.667 0 213.333 42.667 0 1 0-426.667 0z" opacity=".4"/></svg>